<svg width="28" height="29" viewBox="0 0 28 29" fill="none" xmlns="http://www.w3.org/2000/svg">
<path d="M27.658 26.3837L20.458 19.1837C22.2763 16.9485 23.1676 14.1008 22.9482 11.2278C22.7288 8.35483 21.4154 5.67552 19.2788 3.74233C17.1421 1.80914 14.3452 0.769453 11.4647 0.837625C8.58409 0.905798 5.83949 2.07664 3.79672 4.10874C1.76462 6.1515 0.593786 8.8961 0.525613 11.7767C0.457441 14.6572 1.49713 17.4542 3.43032 19.5908C5.36351 21.7274 8.04282 23.0408 10.9158 23.2602C13.7888 23.4796 16.6365 22.5883 18.8717 20.77L26.0717 27.97C26.2869 28.1543 26.5638 28.2506 26.8469 28.2397C27.13 28.2287 27.3986 28.1113 27.599 27.911C27.7993 27.7106 27.9167 27.4421 27.9276 27.1589C27.9386 26.8758 27.8423 26.5989 27.658 26.3837ZM5.38297 18.43C4.12371 17.1715 3.26596 15.5679 2.91821 13.8219C2.57047 12.0759 2.74835 10.266 3.42937 8.62115C4.11038 6.97627 5.26393 5.57032 6.7441 4.58112C8.22427 3.59193 9.96457 3.06394 11.7448 3.06394C13.5251 3.06394 15.2654 3.59193 16.7456 4.58112C18.2258 5.57032 19.3793 6.97627 20.0603 8.62115C20.7413 10.266 20.9192 12.0759 20.5715 13.8219C20.2237 15.5679 19.366 17.1715 18.1067 18.43C17.2749 19.2718 16.2842 19.9402 15.1922 20.3964C14.1001 20.8526 12.9284 21.0875 11.7448 21.0875C10.5613 21.0875 9.3896 20.8526 8.29754 20.3964C7.20548 19.9402 6.21482 19.2718 5.38297 18.43Z" fill="#7F7F7F"/>
</svg>
