<?xml version="1.0" encoding="utf-8"?>
<!-- Generator: Adobe Illustrator 18.0.0, SVG Export Plug-In . SVG Version: 6.00 Build 0)  -->
<!DOCTYPE svg PUBLIC "-//W3C//DTD SVG 1.1//EN" "http://www.w3.org/Graphics/SVG/1.1/DTD/svg11.dtd">
<svg version="1.1" id="Layer_1" xmlns="http://www.w3.org/2000/svg" xmlns:xlink="http://www.w3.org/1999/xlink" x="0px" y="0px"
	 viewBox="0 0 88.9 30.3" enable-background="new 0 0 88.9 30.3" xml:space="preserve">
<g>
	<path fill-rule="evenodd" clip-rule="evenodd" fill="#FFDD00" d="M18.1,3.2c1.2,0,2.1,2,1.7,3c-1-0.2-1.8-0.5-2.3-0.8
		C16,4.5,16.7,3.2,18.1,3.2 M21,6.3L21,6.3c0.1-0.4,0.2-1,0.1-1.6c1.9,2,3.2,5.1,3.8,9.3c0.6,3.9,0.2,7-1.2,9.5
		c-1.4,2.5-3.7,4-7,4.4c-3.1,0.5-5.7-0.3-7.8-2.4c-2.1-2.1-3.4-5.1-4-9.1c-0.4-2.9-0.3-5.3,0.3-7.4c0.6-2,1.6-3.6,2.9-4.7
		c1.3-1.1,2.9-1.8,4.7-2c1.4-0.2,2.7-0.2,3.8,0C16.4,2.7,16.2,3,16,3.3c-1.6,2.4,0.2,4,2.6,4.4c-1.8,1.3-4.3,2.2-6.3,3
		C15.8,11.2,19.9,10.4,21,6.3z M15.2,0c8.4,0,15.2,6.8,15.2,15.2c0,8.4-6.8,15.2-15.2,15.2C6.8,30.3,0,23.5,0,15.2
		C0,6.8,6.8,0,15.2,0z"/>
	<path fill="#59595C" d="M33.4,17.8v-5.1c0-1.2,0.3-2,0.9-2.6c0.6-0.5,1.4-0.8,2.4-0.8c1,0,1.8,0.3,2.4,0.8c0.6,0.5,0.9,1.2,0.9,2
		c0,0.3-0.1,0.4-0.4,0.4c-0.3,0-0.4-0.1-0.4-0.3c-0.2-1.4-1-2-2.5-2c-1.6,0-2.4,0.9-2.4,2.6v5.1c0,1.7,0.8,2.6,2.4,2.6
		c0.8,0,1.4-0.2,1.8-0.7c0.4-0.4,0.6-1.1,0.6-2v-2.2h-2.4c-0.1,0-0.2,0-0.2-0.1c-0.1-0.1-0.1-0.2-0.1-0.3c0-0.1,0-0.2,0.1-0.3
		c0.1-0.1,0.1-0.1,0.2-0.1h2.9c0.1,0,0.2,0,0.2,0.1c0.1,0.1,0.1,0.2,0.1,0.3v2.5c0,1.2-0.3,2-0.9,2.6c-0.6,0.5-1.4,0.8-2.4,0.8
		c-1,0-1.8-0.3-2.4-0.8C33.7,19.8,33.4,18.9,33.4,17.8"/>
	<path fill="#59595C" d="M43.1,17.5h4.2l-2.1-6.9L43.1,17.5z M41.3,20.7C41.3,20.7,41.3,20.6,41.3,20.7l3.5-11.3
		c0.1-0.2,0.2-0.3,0.4-0.3c0.2,0,0.4,0.1,0.4,0.3l3.5,11.3c0,0,0,0,0,0c0,0,0,0,0,0.1c0,0.1,0,0.1-0.1,0.2c-0.1,0.1-0.2,0.1-0.3,0.1
		c-0.2,0-0.3-0.1-0.3-0.2l-0.8-2.6h-4.7l-0.8,2.6c-0.1,0.2-0.2,0.2-0.4,0.2c-0.1,0-0.2,0-0.3-0.1C41.4,20.9,41.3,20.8,41.3,20.7z"/>
	<path fill="#59595C" d="M50.8,20.7V9.6c0-0.2,0.1-0.3,0.4-0.3c0.3,0,0.4,0.1,0.4,0.3v10.7h4.8c0.2,0,0.3,0.1,0.3,0.4
		c0,0.3-0.1,0.4-0.3,0.4h-5.2C50.9,21.1,50.8,21,50.8,20.7"/>
	<path fill="#59595C" d="M58.2,20.7V9.6c0-0.2,0.1-0.3,0.4-0.3c0.3,0,0.4,0.1,0.4,0.3v10.7h4.8c0.2,0,0.3,0.1,0.3,0.4
		c0,0.3-0.1,0.4-0.3,0.4h-5.2C58.3,21.1,58.2,21,58.2,20.7"/>
	<path fill="#59595C" d="M65.6,20.7V9.6c0-0.2,0.1-0.4,0.4-0.4h5.8c0.2,0,0.3,0.1,0.3,0.4c0,0.1,0,0.2-0.1,0.3
		C71.9,10,71.8,10,71.7,10h-5.3v4.8H69c0.1,0,0.2,0,0.2,0.1c0.1,0.1,0.1,0.2,0.1,0.3c0,0.2-0.1,0.4-0.3,0.4h-2.6v4.8h5.3
		c0.1,0,0.2,0,0.2,0.1c0.1,0.1,0.1,0.2,0.1,0.3c0,0.2-0.1,0.4-0.3,0.4H66C65.7,21.1,65.6,21,65.6,20.7"/>
	<path fill="#59595C" d="M74.5,14.8h2.3c1.7,0,2.6-0.8,2.6-2.4c0-1.6-0.9-2.4-2.6-2.4h-2.3V14.8z M73.7,20.7V9.6
		c0-0.1,0-0.2,0.1-0.2c0.1-0.1,0.2-0.1,0.3-0.1h2.8c1,0,1.8,0.2,2.5,0.7c0.6,0.5,0.9,1.3,0.9,2.4c0,1.8-0.9,2.8-2.6,3.1l2.6,5
		c0,0.1,0,0.1,0,0.2c0,0.1,0,0.2-0.1,0.3c-0.1,0.1-0.2,0.1-0.3,0.1c-0.1,0-0.3-0.2-0.5-0.6l-2.5-5h-2.2v5.2c0,0.2-0.1,0.4-0.4,0.4
		C73.9,21.1,73.7,21,73.7,20.7z"/>
	<path fill="#59595C" d="M81.1,9.6c0-0.1,0-0.2,0.1-0.3c0.1-0.1,0.2-0.1,0.3-0.1c0.1,0,0.3,0.1,0.4,0.3l3.1,6.2l3.1-6.2
		c0.1-0.2,0.2-0.3,0.4-0.3c0.1,0,0.2,0,0.3,0.1c0.1,0.1,0.1,0.2,0.1,0.3c0,0.1,0,0.2-0.1,0.3l-3.4,6.6c0,0,0,0.1,0,0.1v4.1
		c0,0.2-0.1,0.4-0.4,0.4c-0.3,0-0.4-0.1-0.4-0.4v-4.1c0,0,0-0.1,0-0.1l-3.3-6.6C81.2,9.8,81.1,9.7,81.1,9.6"/>
</g>
</svg>
