<?xml version="1.0" encoding="UTF-8"?>
<svg id="Layer_2" data-name="Layer 2" xmlns="http://www.w3.org/2000/svg" viewBox="0 0 30.4 30.4">
  <defs>
    <style>
      .cls-1 {
        fill: #fd0;
        fill-rule: evenodd;
      }
    </style>
  </defs>
  <g id="Layer_1-2" data-name="Layer 1">
    <path class="cls-1" d="M18.1,3.2c1.2,0,2.1,2,1.7,3-1-.2-1.8-.5-2.3-.8-1.5-.9-.8-2.2.6-2.2M21,6.3h0c.1-.4.2-1,.1-1.6,1.9,2,3.2,5.1,3.8,9.3.6,3.9.2,7-1.2,9.5-1.4,2.5-3.7,4-7,4.4-3.1.5-5.7-.3-7.8-2.4-2.1-2.1-3.4-5.1-4-9.1-.4-2.9-.3-5.3.3-7.4.6-2,1.6-3.6,2.9-4.7,1.3-1.1,2.9-1.8,4.7-2,1.4-.2,2.7-.2,3.8,0-.2.4-.4.7-.6,1-1.6,2.4.2,4,2.6,4.4-1.8,1.3-4.3,2.2-6.3,3,3.5.5,7.6-.3,8.7-4.4ZM15.2,0c8.4,0,15.2,6.8,15.2,15.2s-6.8,15.2-15.2,15.2c-8.4-.1-15.2-6.9-15.2-15.2S6.8,0,15.2,0Z"/>
  </g>
</svg>